<?xml version="1.0" encoding="utf-8"?>
<!-- Generator: Adobe Illustrator 24.2.1, SVG Export Plug-In . SVG Version: 6.00 Build 0)  -->
<svg version="1.1" id="Layer_1" xmlns="http://www.w3.org/2000/svg" xmlns:xlink="http://www.w3.org/1999/xlink" x="0px" y="0px"
	 viewBox="0 0 7048 1904" style="enable-background:new 0 0 7048 1904;" xml:space="preserve">
<style type="text/css">
	.st0{fill-rule:evenodd;clip-rule:evenodd;fill:#00B5FA;}
	.st1{fill:#00B5FA;}
</style>
<path class="st0" d="M1215.4,830.8l-401,367.9c-15.8-31.6-24.5-66.8-24.5-104.2c0-147.6,136.2-273.3,304.1-280.6
	C1137.2,812.1,1178.2,818.2,1215.4,830.8z"/>
<path class="st0" d="M878.1,38.2C410.8,38.2,32,419.8,32,890.4c0,470.7,378.8,852.2,846.1,852.2c467.3,0,846.1-381.5,846.1-852.2
	C1724.2,419.8,1345.4,38.2,878.1,38.2z M1113,1617.2c-280.1,0-507.2-222.1-507.2-496c0-273.9,227.2-496,507.2-496
	c159.4,0,301.5,71.9,394.5,184.2l-595.5,545.5c146.9,135.2,502.9,100.7,531.3-312.8l169.3-7.4c5.1,28.1,7.7,57,7.7,86.5
	C1620.3,1395.1,1393.1,1617.2,1113,1617.2z"/>
<path class="st1" d="M2002.5,1171.6c0,62.1,15.7,117.5,47,166.2c31.3,48.7,84.5,73,159.4,73c54.5,0,96-17.3,124.6-52
	c28.6-34.7,47.7-72.2,57.2-112.6c4.1-15.5,6.8-30.5,8.2-45c1.4-14.5,2.1-28,2.1-40.4c0-65.2-14.7-123.7-43.9-175.5
	c-29.3-51.8-81.4-77.6-156.3-77.6c-79,0-131.8,27.2-158.3,81.5c-26.6,54.4-39.9,114.1-39.9,179.4v2.3v2.3V1171.6z M3223.4,1162.3
	c0-10.5-0.3-22-1-34.6c-0.6-12.6-2.2-25.2-4.8-37.7c-7.7-45.1-25.6-86.5-53.8-124.3c-28.2-37.7-75.6-56.6-142.3-56.6
	c-66.7,0-114.4,18.9-143.3,56.6c-28.8,37.7-46.5,79.2-52.9,124.3c-2.6,12.6-4.2,25.2-4.8,37.7c-0.7,12.6-1,24.7-1,36.2
	c0,11.5,0.3,23.6,1,36.2c0.6,12.6,2.2,25.2,4.8,37.7c6.4,45.1,24,86.5,52.9,124.3c28.9,37.7,76.6,56.6,143.3,56.6
	c66.7,0,114.1-18.9,142.3-56.6c28.2-37.7,46.2-79.2,53.8-124.3c2.6-12.6,4.2-25.2,4.8-37.7c0.6-12.6,1-24.7,1-36.2V1162.3z
	 M3448.6,1113.7c1.1,16.2,1.7,32.9,1.7,50.1v-1.6c0,55.4-5.8,105.4-17.3,150l191.7-1.3c0,36.7,13.5,66.5,40.6,89.6
	c27,23.1,76.2,34.6,147.4,34.6c40.9,0,71.9-5.5,93-16.5c21.1-11,34.9-23.3,41.5-36.9c4-6.3,6.6-12.3,7.9-18.1c1.3-5.8,2-10.7,2-14.9
	c0-26.2-16.1-45-48.5-56.6c-32.3-11.5-71.5-22-117.7-31.4c-15.8-3.1-32.3-6.3-49.4-9.4c-17.1-3.1-34.3-6.8-51.4-11
	c-67.3-15.7-128.9-39.8-184.9-72.3C3481.2,1154.1,3462.3,1136,3448.6,1113.7L3448.6,1113.7z M2002.5,739.9v119.6h2
	c2.7-3.1,5.5-6.7,8.2-10.9c2.7-4.1,6.1-8.3,10.2-12.4c21.8-29,51.4-55.7,88.9-80c37.5-24.3,90.9-36.5,160.4-36.5
	c98.1,0,184.2,35.2,258.5,105.6c41.8,39.7,71.9,90.9,90.1,153.6c21.5-60.9,55.5-110.4,101.7-148.5c86.5-71.3,186.2-107,299-107
	c112.8,0,212.5,35.6,299,107c46.1,38,79.8,87.2,101.4,147.7c0.3-3.8,0.7-7.5,1.1-11.3c1.3-11.5,3.3-23.1,5.9-34.6
	c13.2-52.4,45.5-100.6,96.9-144.6c51.4-44,132.5-66,243.3-66c11.9,0,23.8,0.3,35.6,0.8c11.9,0.5,24.4,1.3,37.6,2.4
	c75.2,6.3,144.4,28,207.7,65.2c63.3,37.2,98.9,106.6,106.8,208.3v-1.6h-221.5c0,0-0.3-0.8-1-2.4c-0.6-1.6-1-2.9-1-3.9
	c-5.3-26.2-17.2-49.8-35.6-70.7c-18.5-21-56.7-31.4-114.7-31.4c-51.4,0-86.4,6.5-104.8,19.6c-18.5,13.1-29,27.5-31.7,43.2
	c-1.3,3.1-2,6.3-2,9.4v9.4c0,24.1,15.5,41.9,46.5,53.5c31,11.5,68.9,21.5,113.7,29.9c17.1,3.1,34.9,6.5,53.4,10.2
	c18.5,3.7,37.6,8.1,57.4,13.4c67.3,14.7,128.9,38.5,185,71.5c56,33,84.1,88.3,84.1,165.8c0,83.8-24.1,146.2-72.2,187
	c-48.1,40.9-101.2,68.1-159.2,81.7c-26.4,6.3-52.1,10.7-77.1,13.4c-25,2.6-48.1,3.9-69.2,3.9h-18.8c-5.9,0-12.2-0.5-18.8-1.6
	c-93.6-3.1-179.3-25.4-257.1-66.8c-55.8-29.7-92.3-75.7-109.4-138c-20.7,40.5-48,74.8-82.1,102.6c-86.5,70.8-186.2,106.2-299,106.2
	c-112.8,0-212.5-35.4-299-106.2c-51.7-42.3-88-98.9-108.8-169.8c-14.4,43.5-34.2,85-59.5,124.5c-58.6,91.1-154.6,136.7-288.1,136.7
	c-55.8,0-100.8-7.8-134.9-23.3c-34-15.5-59.9-33.1-77.6-52.8c-9.5-9.3-17.4-18.1-23.5-26.4c-6.1-8.3-11.2-16-15.3-23.3l-2-1.6v405.3
	h-235V739.9H2002.5z"/>
<path class="st1" d="M5606.1,1167.9c0-10.2-0.3-21.3-0.9-33.5c-0.6-12.2-2.1-24.3-4.5-36.5c-7.2-43.6-24.2-83.7-50.8-120.2
	c-26.6-36.5-71.5-54.8-134.4-54.8c-63,0-108.1,18.3-135.3,54.8c-27.3,36.5-43.9,76.6-50,120.2c-2.4,12.2-3.9,24.3-4.5,36.5
	c-0.6,12.2-0.9,23.8-0.9,35c0,11.2,0.3,22.8,0.9,35c0.6,12.2,2.1,24.3,4.5,36.5c6.1,43.6,22.7,83.7,50,120.2
	c27.2,36.5,72.4,54.8,135.3,54.8c63,0,107.8-18.3,134.4-54.8c26.6-36.5,43.6-76.6,50.8-120.2c2.4-12.2,4-24.3,4.5-36.5
	c0.6-12.2,0.9-23.8,0.9-35V1167.9z M5820.5,1167.9c0,147-40.9,254.8-122.6,323.2c-81.8,68.5-175.9,102.7-282.5,102.7
	c-106.6,0-200.7-34.2-282.5-102.7c-81.8-68.5-122.6-175.7-122.6-321.7s40.9-253.5,122.6-322.5c81.8-69,175.9-103.5,282.5-103.5
	c106.6,0,200.7,34.5,282.5,103.5c81.8,69,122.6,176.5,122.6,322.5V1167.9z M7018.4,765.7L6767.5,1575h-235l-135.4-590.2h-4
	L6257.7,1575h-235l-244.9-809.3h243l135.4,581.1h4l123.5-581.1h229l131.4,581.1h2l137.4-581.1H7018.4z M4978.7,1016.8v559.8h-214.4
	v-491.3c0-7.1-0.3-15.7-0.9-25.9c-0.6-10.1-1.6-20.8-2.8-31.9c-5-24.3-16.8-47.1-35.4-68.5c-18.7-21.3-52.2-31.9-100.7-31.9
	c-47.2,0-87,15.7-119.3,47.2c-32.3,31.4-48.5,78.1-48.5,139.9v462.5h-214.3V767.3h205v118.7h3.7c5-7.1,10.6-15.2,16.8-24.3
	c6.2-9.1,13.7-18.8,22.4-28.9c18.7-21.3,44.4-40.8,77.4-58.6c32.9-17.8,75.5-26.6,127.7-26.6c79.5,0,146.6,22.8,201.3,68.5
	c54.7,45.7,82,113.1,82,202.3V1016.8z"/>
</svg>
