<?xml version="1.0" encoding="utf-8"?>
<!-- Generator: Adobe Illustrator 24.2.1, SVG Export Plug-In . SVG Version: 6.00 Build 0)  -->
<svg version="1.1" id="Layer_1" xmlns="http://www.w3.org/2000/svg" xmlns:xlink="http://www.w3.org/1999/xlink" x="0px" y="0px"
	 viewBox="0 0 80 80" style="enable-background:new 0 0 80 80;" xml:space="preserve">
<style type="text/css">
	.st0{fill:#0D223E;}
	.st1{fill:#FFFFFF;}
</style>
<g>
	<circle class="st0" cx="40" cy="40" r="40"/>
</g>
<path class="st1" d="M62.7,18c-7-0.3-16.3-2-21.2-6.5c-0.3-0.3-0.8-0.5-1.2-0.5c-0.5,0-0.9,0.2-1.2,0.5c-4,3.6-12.1,6.1-21.2,6.5
	c-1,0-1.8,0.9-1.8,1.8v11.6c0,0.5,0.4,0.8,0.8,0.8c0.5,0,0.8-0.4,0.8-0.8V19.9c0-0.1,0.1-0.2,0.2-0.2c9.6-0.4,17.9-3,22.3-6.9
	c0.1-0.1,0.2-0.1,0.2,0c5.3,4.8,15.1,6.6,22.3,6.9c0.1,0,0.2,0.1,0.2,0.2V39c0,9.3-5,17.9-13.1,22.5l-8.5,4.8c-0.6,0.3-1.4,0.3-2,0
	l-8.5-4.8C22.7,56.9,17.7,48.3,17.7,39v-3.6c0-0.5-0.4-0.8-0.8-0.8c-0.5,0-0.8,0.4-0.8,0.8V39c0,9.9,5.3,19.1,13.9,23.9l8.5,4.8
	c1.1,0.6,2.5,0.6,3.6,0l8.5-4.8c8.6-4.9,13.9-14,13.9-23.9V19.9C64.5,18.9,63.7,18.1,62.7,18L62.7,18z"/>
<path class="st1" d="M32.1,59.2l7.2,4.1c0.5,0.3,1.2,0.3,1.7,0l7.2-4.1c7.3-4.1,11.8-11.9,11.8-20.3V23.8c0-0.9-0.7-1.7-1.6-1.8
	c-7-0.8-13-2.7-17.4-5.4c-0.6-0.3-1.3-0.3-1.8,0c-4.4,2.7-10.5,4.6-17.4,5.4c-0.9,0.1-1.6,0.9-1.6,1.8V39
	C20.3,47.3,24.9,55.1,32.1,59.2L32.1,59.2z M22,23.8C22,23.8,22,23.8,22,23.8c7.3-0.9,13.6-2.9,18.2-5.7c0,0,0.1,0,0.1,0
	c4.6,2.8,10.9,4.8,18.1,5.6c0,0,0.1,0,0.1,0.1V39c0,7.8-4.2,15-11,18.8l-7.2,4.1c0,0-0.1,0-0.1,0L33,57.8c-6.8-3.8-11-11-11-18.8
	V23.8z"/>
<g>
	<g>
		<path class="st1" d="M47.2,40.4l-3.4-1.5c-0.2-0.1-0.4-0.3-0.4-0.6v-0.9c1.1-0.9,1.9-2.3,1.9-3.9v-1.3c0.4-0.2,0.6-0.6,0.6-1.1V31
			c0-2.7-2.2-4.9-4.9-4.9h-1.2c-2.7,0-4.9,2.2-4.9,4.9v1.1c0,0.4,0.2,0.7,0.5,1c0,0,0.1,0.1,0.2,0.1v0.3c0,1.6,0.7,3,1.9,3.9v0.9
			c0,0.3-0.2,0.5-0.4,0.6l-3.4,1.5c-1.1,0.5-1.8,1.6-1.8,2.8v7.7c0,0.3,0.3,0.6,0.6,0.6c0.3,0,0.6-0.3,0.6-0.6v-7.7
			c0-0.1,0-0.1,0-0.2l1.6,1.6c0.2,0.2,0.4,0.6,0.4,0.9v5.4c0,0.3,0.3,0.6,0.6,0.6s0.6-0.3,0.6-0.6v-5.4c0-0.7-0.3-1.3-0.7-1.7
			l-1.9-1.9c0.2-0.2,0.4-0.3,0.6-0.4l3.3-1.5l2.5,2.5v8.5c0,0.3,0.3,0.6,0.6,0.6c0.3,0,0.6-0.3,0.6-0.6v-8.5l2.5-2.5l3.3,1.5
			c0.2,0.1,0.4,0.2,0.6,0.4l-1.9,1.9c-0.5,0.5-0.7,1.1-0.7,1.7v5.4c0,0.3,0.3,0.6,0.6,0.6s0.6-0.3,0.6-0.6v-5.4
			c0-0.3,0.1-0.7,0.4-0.9l1.6-1.6c0,0.1,0,0.1,0,0.2v7.7c0,0.3,0.3,0.6,0.6,0.6s0.6-0.3,0.6-0.6v-7.7C49,42,48.3,40.9,47.2,40.4z
			 M40.3,41.4l-2.2-2.2c0.2-0.3,0.3-0.6,0.3-0.9v-0.2c0.6,0.2,1.2,0.4,1.9,0.4c0.7,0,1.3-0.1,1.9-0.4v0.2c0,0.3,0.1,0.7,0.3,0.9
			L40.3,41.4z M40.3,37.3c-2.1,0-3.8-1.7-3.8-3.8v-0.3c0.4-0.1,0.7-0.4,1.1-0.7c0.2-0.2,0.3-0.6,0-0.8c-0.2-0.2-0.6-0.3-0.8,0
			c-0.3,0.3-0.6,0.4-0.9,0.5c0,0,0,0,0,0c0,0,0,0,0-0.1V31c0-2.1,1.7-3.8,3.8-3.8H41c2.1,0,3.8,1.7,3.8,3.8v0.1c0,0,0,0,0,0
			c-3.5,0.7-5.2-0.6-5.8-1.2c-0.2-0.2-0.6-0.2-0.8,0c-0.2,0.2-0.2,0.6,0,0.8c1.8,1.8,4.4,1.8,6,1.6v1.1
			C44.1,35.6,42.4,37.3,40.3,37.3z"/>
	</g>
</g>
</svg>
