<?xml version="1.0" encoding="UTF-8"?>
<svg width="14px" height="20px" viewBox="0 0 14 20" version="1.1" xmlns="http://www.w3.org/2000/svg" xmlns:xlink="http://www.w3.org/1999/xlink">
    <title>Group 3</title>
    <defs>
        <polygon id="path-1" points="0 0.525 13.8 0.525 13.8 19.725 0 19.725"></polygon>
    </defs>
    <g id="Page-1" stroke="none" stroke-width="1" fill="none" fill-rule="evenodd">
        <g id="App-store-open" transform="translate(-413.000000, -636.000000)">
            <g id="Group-3" transform="translate(413.000000, 636.000000)">
                <mask id="mask-2" fill="white">
                    <use xlink:href="#path-1"></use>
                </mask>
                <g id="Clip-2"></g>
                <path d="M12.8143316,0.525 C12.269811,0.525 11.8286632,0.96960922 11.8286632,1.5180621 L11.8286632,12.7732227 C11.8286632,13.504544 11.2401638,14.0973055 10.5142875,14.0973055 L3.36554679,14.0973055 L5.29713647,12.1513788 C5.68206402,11.7635639 5.68206402,11.1347159 5.29713647,10.7467487 C4.9120578,10.3589337 4.28804295,10.3589337 3.90296428,10.7467487 L0.288695657,14.3881287 C-0.0962318856,14.7760959 -0.0962318856,15.4047916 0.288695657,15.7927588 L3.90296428,19.4341388 C4.28804295,19.8219537 4.9120578,19.8219537 5.29713647,19.4341388 C5.68206402,19.0463238 5.68206402,18.4174758 5.29713647,18.0295086 L3.36554679,16.083582 L10.5142875,16.083582 C12.3289027,16.083582 13.8,14.601602 13.8,12.7732227 L13.8,1.5180621 C13.8,0.96960922 13.3587011,0.525 12.8143316,0.525" id="Fill-1" fill="#CFCFCF" mask="url(#mask-2)"></path>
            </g>
        </g>
    </g>
</svg>