<?xml version="1.0" encoding="utf-8"?>
<!-- Generator: Adobe Illustrator 25.0.0, SVG Export Plug-In . SVG Version: 6.00 Build 0)  -->
<svg version="1.1" xmlns="http://www.w3.org/2000/svg" xmlns:xlink="http://www.w3.org/1999/xlink" x="0px" y="0px"
	 viewBox="0 0 226.8 247.1" style="enable-background:new 0 0 226.8 247.1;" xml:space="preserve">
<style type="text/css">
	.st0{fill:#00BDFB;}
</style>
<g id="Layer_1">
</g>
<g id="Layer_2">
	<g>
		<g>
			<path class="st0" d="M175.8,51.1h-100v196h151v-145L175.8,51.1z M180.8,70.2L206.6,96h-25.8V70.2z M216.8,237.1h-131v-176h85v45
				h45.8l0.2,0.2V237.1z"/>
			<rect x="98.8" y="96.1" class="st0" width="61" height="10"/>
			<rect x="98.8" y="124.1" class="st0" width="105" height="10"/>
			<rect x="98.8" y="152.1" class="st0" width="105" height="10"/>
			<rect x="98.8" y="180.1" class="st0" width="105" height="10"/>
			<rect x="98.8" y="208.1" class="st0" width="105" height="10"/>
		</g>
		<g>
			<rect x="23" y="45" class="st0" width="40.8" height="10"/>
			<rect x="23" y="73" class="st0" width="40.8" height="10"/>
			<rect x="23" y="101" class="st0" width="40.8" height="10"/>
			<rect x="23" y="129" class="st0" width="40.8" height="10"/>
			<rect x="23" y="157" class="st0" width="40.8" height="10"/>
			<polygon class="st0" points="63.8,186 10,186 10,10 95,10 95,41.1 105,41.1 105,19.1 126.9,41.1 141.1,41.1 100,0 0,0 0,196 
				63.8,196 			"/>
		</g>
	</g>
</g>
</svg>
