<?xml version="1.0" encoding="UTF-8"?>
<svg width="18px" height="18px" viewBox="0 0 18 18" version="1.1" xmlns="http://www.w3.org/2000/svg" xmlns:xlink="http://www.w3.org/1999/xlink">
    <title>Shape</title>
    <g id="Page-1" stroke="none" stroke-width="1" fill="none" fill-rule="evenodd">
        <path d="M0.866161614,0.629167273 C1.35562663,0.143036461 2.16358678,0.150014489 2.66163372,0.644679101 L2.66163372,0.644679101 L9.13160806,7.07007656 L15.5322276,0.714231138 C16.0010786,0.248564106 16.7392185,0.208401681 17.2335066,0.600358713 L17.335506,0.69096599 C17.8249609,1.17710696 17.8144223,1.98306913 17.3120873,2.48200356 L17.3120873,2.48200356 L10.9116081,8.83807656 L17.1502772,15.034917 C17.615116,15.496609 17.6522254,16.2264317 17.2571625,16.7169401 L17.1658897,16.8182011 C16.6764246,17.304332 15.8684645,17.2973539 15.3704176,16.8026893 L15.3704176,16.8026893 L9.13160806,10.6060766 L2.69854167,16.9962952 C2.22969059,17.4619622 1.49155068,17.5021246 0.997262658,17.1101676 L0.895263227,17.0195603 C0.405808366,16.5334194 0.416346976,15.7274572 0.918681953,15.2285228 L0.918681953,15.2285228 L7.35160806,8.83807656 L0.881774097,2.41245143 C0.416935307,1.95075944 0.379825854,1.22093669 0.774888772,0.730428308 Z" id="Shape" fill="#00B5FA"></path>
    </g>
</svg>