<?xml version="1.0" encoding="utf-8"?>
<!-- Generator: Adobe Illustrator 25.0.0, SVG Export Plug-In . SVG Version: 6.00 Build 0)  -->
<svg version="1.1" id="Layer_1" xmlns="http://www.w3.org/2000/svg" xmlns:xlink="http://www.w3.org/1999/xlink" x="0px" y="0px"
	 viewBox="0 0 80 80" style="enable-background:new 0 0 80 80;" xml:space="preserve">
<style type="text/css">
	.st0{fill:#0D223E;}
	.st1{fill:#FFFFFF;}
</style>
<circle class="st0" cx="40" cy="40" r="40"/>
<g id="_42-Backup_and_Recovery">
	<path class="st1" d="M60,55.2H20c-2.2,0-4-1.8-4-4V20.8c0-2.2,1.8-4,4-4h40c2.2,0,4,1.8,4,4v30.4C64,53.4,62.2,55.2,60,55.2z
		 M20,18.4c-1.4,0-2.4,1-2.4,2.4v30.4c0,1.4,1,2.4,2.4,2.4h40c1.4,0,2.4-1,2.4-2.4V20.8c0-1.4-1-2.4-2.4-2.4H20z"/>
	<path class="st1" d="M63.2,45.6H16.8c-0.5,0-0.8-0.3-0.8-0.8s0.3-0.8,0.8-0.8h46.4c0.5,0,0.8,0.3,0.8,0.8S63.7,45.6,63.2,45.6z"/>
	<path class="st1" d="M40,52c-1.4,0-2.4-1-2.4-2.4s1-2.4,2.4-2.4s2.4,1,2.4,2.4S41.4,52,40,52z M40,48.8c-0.5,0-0.8,0.3-0.8,0.8
		c0,0.5,0.3,0.8,0.8,0.8s0.8-0.3,0.8-0.8C40.8,49.1,40.5,48.8,40,48.8z"/>
	<path class="st1" d="M50.4,63.2H29.6c-0.2,0-0.4-0.1-0.6-0.2l-0.8-0.8c-0.2-0.2-0.3-0.6-0.2-0.8l0.8-2.4c0.1-0.3,0.4-0.6,0.7-0.6
		h2.1c2.2-2.2,1.9-3.8,1.9-3.8c-0.1-0.4,0.2-0.8,0.6-0.9c0.4-0.1,0.8,0.2,1,0.6c0.1,0.2,0.4,2.5-2.6,5.5C32.4,59.9,32.2,60,32,60
		h-1.8l-0.5,1.4l0.2,0.2h20.2l0.2-0.2L49.8,60H48c-0.2,0-0.4-0.1-0.6-0.2c-3-3-2.6-5.3-2.6-5.5c0.1-0.4,0.5-0.7,0.9-0.6
		c0.4,0.1,0.7,0.5,0.6,0.9c0,0,0,0,0,0.1l0,0c0,0-0.2,1.6,1.9,3.8h2.2c0.3,0,0.6,0.2,0.7,0.6l0.8,2.4c0.1,0.3,0,0.6-0.2,0.8L51,63
		C50.8,63.1,50.6,63.2,50.4,63.2z"/>
	<path class="st1" d="M48,60H32c-0.5,0-0.8-0.3-0.8-0.8s0.3-0.8,0.8-0.8h16c0.5,0,0.8,0.3,0.8,0.8S48.5,60,48,60z"/>
	<circle class="st1" cx="20.8" cy="21.6" r="0.8"/>
	<circle class="st1" cx="20.8" cy="24.8" r="0.8"/>
	<circle class="st1" cx="20.8" cy="28" r="0.8"/>
	<circle class="st1" cx="20.8" cy="31.2" r="0.8"/>
	<circle class="st1" cx="20.8" cy="34.4" r="0.8"/>
	<circle class="st1" cx="20.8" cy="37.6" r="0.8"/>
	<circle class="st1" cx="20.8" cy="40.8" r="0.8"/>
	<circle class="st1" cx="23.2" cy="39.2" r="0.8"/>
	<circle class="st1" cx="23.2" cy="36" r="0.8"/>
	<circle class="st1" cx="23.2" cy="32.8" r="0.8"/>
	<circle class="st1" cx="23.2" cy="29.6" r="0.8"/>
	<circle class="st1" cx="23.2" cy="26.4" r="0.8"/>
	<circle class="st1" cx="23.2" cy="23.2" r="0.8"/>
	<path class="st1" d="M38.4,41.6h-8c-2.2,0-4-1.8-4-4c0-0.2,0-0.3,0-0.5l0.8-12.3c0-2.2,1.8-3.9,4-3.9h6.4c2.2,0,4,1.8,4,4l0.8,12.3
		c0,0.2,0,0.3,0,0.5l0,0C42.4,39.8,40.6,41.6,38.4,41.6z M28,37.7c0,1.3,1.1,2.3,2.4,2.3h8c1.3,0,2.4-1,2.4-2.4v-0.3
		c-0.2-1.2-1.2-2.1-2.4-2.1h-8c-1.2,0-2.2,0.9-2.4,2.1V37.7L28,37.7z M31.2,22.4c-1.4,0-2.4,1-2.4,2.4l-0.6,9.4
		c0.6-0.4,1.4-0.6,2.2-0.6h8c0.8,0,1.5,0.2,2.2,0.6L40,24.9c0-1.4-1-2.4-2.4-2.5l0,0H31.2z"/>
	<circle class="st1" cx="30.4" cy="37.6" r="0.8"/>
	<path class="st1" d="M37.6,38.4h-4c-0.5,0-0.8-0.3-0.8-0.8c0-0.5,0.3-0.8,0.8-0.8h4c0.5,0,0.8,0.3,0.8,0.8
		C38.4,38.1,38.1,38.4,37.6,38.4z"/>
	<path class="st1" d="M51.2,38.4c-4,0-7.2-3.2-7.2-7.2s3.2-7.2,7.2-7.2s7.2,3.2,7.2,7.2c0,0.5-0.3,0.8-0.8,0.8
		c-0.5,0-0.8-0.3-0.8-0.8c0-3.1-2.5-5.6-5.6-5.6c-3.1,0-5.6,2.5-5.6,5.6c0,3.1,2.5,5.6,5.6,5.6c0.5,0,0.8,0.3,0.8,0.8
		C52,38.1,51.7,38.4,51.2,38.4z"/>
	<path class="st1" d="M57.6,32.8c-0.2,0-0.2,0-0.3-0.1l-3.2-1.6c-0.4-0.2-0.6-0.6-0.3-1c0.2-0.4,0.6-0.6,1-0.3l2.7,1.4l2-2
		c0.3-0.3,0.8-0.3,1.1,0c0.3,0.3,0.3,0.8,0,1.1l-2.4,2.4C58,32.7,57.8,32.8,57.6,32.8z"/>
</g>
</svg>
